<svg id="Layer_1" data-name="Layer 1" xmlns="http://www.w3.org/2000/svg" viewBox="0 0 22 19.31"><defs><style>.cls-1{fill:#232176;}.cls-2{fill:#fff;}.cls-3{fill:#ec2224;}</style></defs><polygon class="cls-1" points="0 2.23 0 16.96 8.53 9.57 0 2.23"/><polygon class="cls-1" points="19.58 0 2.44 0 11.04 7.39 19.58 0"/><polygon class="cls-1" points="22 16.82 22 2.24 13.55 9.55 22 16.82"/><polygon class="cls-1" points="2.29 19.31 19.86 19.31 11.04 11.72 2.29 19.31"/><polygon class="cls-2" points="22 16.82 13.55 9.55 22 2.24 22 0 19.58 0 11.04 7.39 2.44 0 0 0 0 2.23 8.53 9.57 0 16.96 0 19.31 2.29 19.31 11.04 11.72 19.86 19.31 22 19.31 22 16.82"/><polygon class="cls-2" points="22 6.49 13.21 6.49 13.19 0 8.76 0 8.78 6.49 0 6.49 0 12.86 8.78 12.86 8.78 19.27 13.21 19.27 13.21 12.86 22 12.86 22 6.49"/><polygon class="cls-3" points="22 7.8 12.29 7.8 12.29 0 9.77 0 9.77 7.8 0 7.8 0 11.41 9.77 11.41 9.77 19.31 12.29 19.31 12.29 11.41 22 11.41 22 7.8"/></svg>